<?xml version="1.0" standalone="no"?>
<!DOCTYPE svg PUBLIC "-//W3C//DTD SVG 20010904//EN"
 "http://www.w3.org/TR/2001/REC-SVG-20010904/DTD/svg10.dtd">
<svg version="1.0" xmlns="http://www.w3.org/2000/svg"
 width="1536.000000pt" height="1024.000000pt" viewBox="0 0 1536.000000 1024.000000"
 preserveAspectRatio="xMidYMid meet">

<g transform="translate(0.000000,1024.000000) scale(0.100000,-0.100000)"
fill="#000000" stroke="none">
<path d="M7000 8845 c-101 -69 -191 -131 -198 -139 -14 -14 -11 -38 17 -136
57 -202 170 -627 215 -815 100 -414 140 -572 152 -605 10 -29 13 133 13 893 1
510 -2 927 -6 927 -5 -1 -91 -57 -193 -125z"/>
<path d="M6475 8788 c-46 -60 -227 -313 -232 -324 -2 -6 22 -46 54 -90 32 -43
81 -113 110 -154 119 -171 350 -508 378 -551 70 -107 158 -235 175 -254 10
-11 32 -45 48 -75 35 -67 152 -248 152 -236 0 4 -25 76 -56 160 -31 83 -67
182 -80 220 -26 77 -91 250 -105 281 -5 11 -26 72 -47 135 -95 281 -349 920
-366 920 -3 0 -17 -15 -31 -32z"/>
<path d="M7465 8810 c-60 -4 -116 -8 -122 -9 -10 -1 -13 -33 -13 -122 l0 -121
108 8 c495 38 969 -61 1437 -299 267 -137 501 -311 717 -536 421 -438 665
-939 750 -1541 17 -127 17 -603 -1 -725 -7 -49 -24 -146 -38 -215 -22 -110
-34 -161 -75 -300 -32 -110 -157 -391 -213 -481 -15 -22 -24 -47 -21 -55 10
-25 151 -184 164 -184 42 0 236 403 325 675 53 160 106 438 126 665 26 276 3
569 -70 900 -140 643 -533 1260 -1069 1681 -197 155 -351 252 -561 353 -379
183 -723 277 -1119 305 -154 11 -155 11 -325 1z"/>
<path d="M5883 8483 c-8 -21 -23 -56 -33 -78 -45 -98 -100 -259 -95 -274 3 -9
24 -29 48 -45 75 -52 328 -236 488 -355 86 -64 201 -147 254 -186 54 -38 138
-101 187 -140 50 -38 109 -83 132 -99 22 -17 94 -75 159 -129 65 -54 120 -97
122 -95 2 2 -75 98 -171 213 -164 196 -309 372 -430 521 -29 34 -104 123 -167
196 -63 73 -150 174 -192 223 -143 165 -257 285 -272 285 -8 0 -21 -17 -30
-37z"/>
<path d="M5402 7863 l3 -237 35 -12 c19 -7 136 -44 260 -84 124 -39 241 -77
260 -85 19 -7 114 -36 210 -64 96 -29 204 -63 240 -75 105 -38 415 -136 431
-136 7 0 28 -9 45 -19 17 -11 62 -30 100 -44 38 -14 86 -33 108 -42 21 -9 40
-14 42 -12 5 5 -134 96 -241 159 -107 63 -487 293 -625 378 -74 46 -182 111
-240 145 -507 301 -616 365 -625 365 -3 0 -4 -107 -3 -237z"/>
<path d="M5193 7463 c-57 -60 -128 -140 -204 -228 -137 -161 -159 -188 -159
-197 0 -4 514 -8 1143 -7 l1142 1 -155 39 c-85 21 -202 48 -260 59 -58 11
-139 29 -180 40 -41 11 -181 45 -310 75 -215 49 -908 214 -972 230 -19 5 -31
2 -45 -12z"/>
<path d="M4796 6898 c-49 -78 -132 -402 -172 -678 -28 -190 -26 -604 4 -797
53 -345 127 -587 268 -880 83 -172 159 -292 185 -293 8 0 139 154 158 185 11
17 3 39 -67 175 -113 217 -176 383 -227 594 -121 504 -94 1052 75 1552 37 112
47 150 37 156 -6 4 -65 8 -129 8 -111 0 -118 -1 -132 -22z"/>
<path d="M5500 6495 l0 -255 253 2 252 3 3 253 2 252 -255 0 -255 0 0 -255z
m435 0 l0 -180 -182 -3 -183 -2 0 185 0 185 183 -2 182 -3 0 -180z"/>
<path d="M5760 6586 c-22 -7 -34 -17 -31 -26 13 -49 12 -62 -4 -80 -12 -14
-25 -17 -46 -13 -28 5 -29 4 -29 -29 l0 -35 100 -2 100 -1 0 100 0 100 -27 -1
c-16 0 -44 -6 -63 -13z"/>
<path d="M5650 6565 c0 -10 7 -15 18 -13 21 4 19 22 -2 26 -10 2 -16 -3 -16
-13z"/>
<path d="M6083 6691 c6 -73 11 -81 48 -81 27 0 29 -2 29 -40 0 -38 -2 -40 -29
-40 -27 0 -30 -3 -36 -44 -11 -73 -4 -83 69 -91 l64 -6 6 -40 c4 -22 3 -69 0
-105 -6 -61 -6 -64 15 -64 50 0 61 -16 61 -86 l0 -65 33 3 c28 3 33 7 37 38 3
21 11 36 20 36 8 1 21 2 29 3 11 1 13 17 7 86 -3 47 -3 110 0 141 l7 55 36 -3
36 -3 3 -101 c2 -96 4 -102 25 -108 12 -3 25 -6 30 -6 4 0 7 50 7 110 l0 110
-30 0 c-28 0 -30 3 -30 35 l0 34 -72 3 -73 3 0 30 0 30 73 3 72 3 0 -31 c0
-27 3 -30 30 -30 27 0 30 3 30 30 0 27 -3 30 -30 30 -28 0 -30 2 -30 40 0 38
2 40 30 40 l30 0 0 71 0 70 -27 -3 c-24 -3 -28 -8 -31 -40 -3 -36 -5 -38 -37
-38 -29 0 -34 -4 -37 -27 -2 -24 -8 -29 -36 -31 -46 -5 -63 11 -52 49 5 17 7
44 3 60 -5 28 -8 29 -63 29 -57 0 -58 -1 -62 -30 -5 -36 -3 -40 34 -40 15 0
28 -4 28 -9 0 -5 7 -16 15 -25 14 -14 13 -17 -10 -32 -38 -25 -73 -12 -77 29
-3 29 -6 32 -32 29 -33 -4 -46 10 -46 51 0 24 -3 27 -36 27 l-37 0 6 -59z
m221 -177 c3 -8 3 -40 0 -70 l-7 -54 36 0 c36 0 36 0 42 -54 10 -80 6 -91 -35
-91 l-35 0 -3 72 -3 72 -32 3 c-28 3 -32 7 -35 36 -3 29 -6 32 -36 32 -27 0
-35 5 -38 23 -8 42 0 47 72 47 53 0 69 -4 74 -16z"/>
<path d="M6662 6498 l3 -253 255 0 255 0 3 253 2 252 -260 0 -260 0 2 -252z
m446 0 l-3 -183 -185 0 -185 0 -3 183 -2 182 190 0 190 0 -2 -182z"/>
<path d="M6820 6560 c0 -11 4 -20 9 -20 13 0 32 26 24 33 -13 14 -33 6 -33
-13z"/>
<path d="M6985 6561 c-6 -5 -23 -11 -39 -13 -20 -2 -35 -12 -46 -33 -14 -25
-23 -29 -47 -27 -26 3 -31 -1 -36 -24 -11 -57 -3 -62 94 -63 89 -1 90 -1 100
26 12 31 7 119 -8 134 -5 5 -13 5 -18 0z"/>
<path d="M6090 6235 l0 -65 30 0 30 0 0 65 0 65 -30 0 -30 0 0 -65z"/>
<path d="M8465 6250 c-58 -8 -144 -59 -177 -104 -40 -56 -71 -160 -63 -215 23
-152 139 -255 290 -255 121 0 226 67 276 177 40 89 21 214 -47 302 -48 63
-181 109 -279 95z m160 -74 c89 -42 135 -115 135 -216 0 -64 -22 -113 -75
-165 -75 -76 -180 -91 -279 -40 -48 25 -65 40 -95 89 -43 71 -47 134 -12 211
29 65 55 93 116 121 67 32 143 32 210 0z"/>
<path d="M8597 6017 c-31 -28 -67 -63 -81 -76 l-26 -24 -46 33 c-43 30 -47 31
-62 16 -16 -16 -13 -21 43 -71 l60 -54 78 77 c102 100 121 126 104 141 -11 8
-27 -1 -70 -42z"/>
<path d="M5500 6131 c0 -29 14 -41 51 -41 12 0 19 -7 19 -19 0 -37 -12 -51
-41 -51 l-29 0 0 -75 0 -75 35 0 c28 0 35 -4 35 -20 0 -16 7 -20 35 -20 30 0
35 3 35 24 0 24 16 36 51 36 31 0 25 46 -6 54 -34 9 -45 1 -45 -33 0 -25 -4
-29 -35 -33 -20 -2 -38 -2 -40 1 -3 2 -5 21 -5 42 0 31 4 38 23 41 16 2 23 11
25 31 3 23 8 27 33 27 27 0 29 3 29 35 0 30 3 35 24 35 57 0 86 12 86 35 0 13
-7 26 -16 29 -9 3 -72 6 -140 6 l-124 0 0 -29z"/>
<path d="M5905 6151 l-40 -6 -1 -57 -2 -58 33 0 c31 0 34 3 37 33 3 28 7 32
36 35 26 3 34 -1 41 -19 15 -41 3 -59 -40 -59 -37 0 -39 -2 -39 -30 l0 -30 74
0 75 0 0 100 0 100 -67 -1 c-37 -1 -85 -5 -107 -8z"/>
<path d="M6160 6060 l0 -100 41 0 40 0 -3 -37 c-3 -36 -5 -38 -40 -41 -32 -3
-38 -7 -38 -27 0 -24 17 -35 56 -35 21 0 24 -5 24 -35 0 -33 -2 -35 -40 -41
-33 -5 -40 -11 -40 -29 0 -18 7 -24 40 -29 l40 -6 0 -105 0 -105 30 0 c27 0
30 -3 30 -30 0 -27 -3 -30 -29 -30 -25 0 -30 4 -33 28 -3 26 -5 27 -74 30
l-71 3 -7 -32 c-3 -17 -6 -78 -6 -134 0 -110 2 -115 55 -115 20 0 24 -6 27
-37 3 -35 6 -38 36 -41 29 -3 32 -6 32 -38 0 -32 2 -34 35 -34 34 0 35 1 35
40 0 38 2 40 31 40 27 0 30 3 27 28 -2 21 -9 28 -30 30 -25 3 -28 0 -28 -27 0
-29 -3 -31 -35 -31 l-35 0 0 60 0 60 -34 0 c-47 0 -61 20 -50 73 9 41 10 42
51 45 l42 3 3 -38 c3 -33 7 -38 31 -41 15 -2 27 -9 27 -18 0 -17 55 -20 66 -3
8 14 -14 29 -43 29 -21 0 -23 4 -23 60 l0 60 34 0 c30 0 35 -3 38 -27 2 -22 9
-29 31 -31 26 -3 27 -2 27 42 0 64 7 76 45 76 27 0 34 -4 37 -22 2 -15 11 -24
24 -26 19 -3 23 -12 29 -68 6 -62 7 -64 35 -64 27 0 29 -3 32 -47 l3 -48 50
-3 c57 -4 75 12 75 65 l0 33 70 0 70 0 0 -50 0 -50 -35 0 c-34 0 -35 -1 -35
-40 l0 -40 -100 0 c-92 0 -100 -2 -100 -19 0 -48 7 -51 106 -51 l94 0 0 34 c0
40 11 50 46 42 20 -5 24 -13 24 -42 0 -35 1 -35 38 -32 34 3 37 6 40 36 3 28
7 32 33 32 27 0 29 -3 29 -35 0 -33 2 -35 34 -35 32 0 35 3 38 32 2 27 9 34
36 42 26 7 32 14 32 36 0 23 -5 29 -30 34 -27 5 -30 9 -30 46 0 38 2 40 30 40
l30 0 0 135 0 135 -42 0 c-71 0 -88 -8 -88 -41 0 -26 4 -29 30 -29 l30 0 0
-93 0 -93 -32 -9 c-29 -9 -33 -15 -36 -47 -3 -34 -6 -38 -32 -38 -26 0 -29 4
-35 43 -4 23 -5 58 -3 77 3 31 6 35 36 38 29 3 33 6 30 30 -2 21 -10 28 -33
32 l-30 5 -3 92 -3 92 -32 3 -32 3 -5 70 c-5 67 -6 70 -30 70 -21 0 -26 -6
-30 -35 -4 -29 -10 -36 -32 -38 -39 -5 -49 23 -46 126 l3 87 33 3 c29 3 32 6
32 38 0 32 -2 34 -34 34 -31 0 -34 -3 -40 -40 l-6 -40 -56 0 c-54 0 -55 0 -52
-27 2 -22 9 -29 29 -31 23 -3 27 -9 31 -46 3 -23 3 -57 0 -74 l-4 -33 -92 3
-91 3 -3 113 -3 112 -29 0 c-28 0 -30 -2 -30 -40 0 -39 -1 -40 -35 -40 -29 0
-35 -4 -35 -20 0 -13 12 -28 30 -38 29 -16 30 -20 30 -84 l0 -68 -30 0 c-24 0
-32 6 -44 34 -10 23 -22 35 -38 38 -21 3 -23 8 -23 68 l0 65 33 3 c29 3 33 6
30 30 -2 21 -10 28 -33 32 -29 5 -30 6 -33 73 l-3 67 -34 0 -35 0 0 70 0 70
-35 0 -35 0 0 -100z m215 -480 c5 -23 12 -30 30 -30 17 0 24 7 29 30 5 29 7
30 66 30 l60 0 0 -35 c0 -36 -4 -38 -90 -47 -19 -2 -26 -10 -28 -30 -3 -28 -4
-28 -73 -28 l-69 0 0 70 0 70 34 0 c30 0 35 -4 41 -30z m483 -50 c2 -36 0 -89
-3 -117 l-6 -53 -110 0 -109 0 0 120 0 121 113 -3 112 -3 3 -65z"/>
<path d="M6707 5513 c-4 -3 -7 -21 -7 -40 0 -31 2 -33 35 -33 32 0 35 2 35 30
0 36 -42 65 -63 43z"/>
<path d="M6580 6125 c0 -32 -2 -35 -30 -35 -27 0 -30 -3 -30 -30 0 -27 3 -30
29 -30 26 0 30 4 33 33 l3 32 78 3 c86 3 107 -6 107 -44 0 -19 5 -24 28 -24
15 0 44 -3 65 -6 37 -7 37 -7 37 29 0 33 -2 36 -32 39 -26 2 -34 8 -37 28 -1
14 -8 28 -15 32 -6 4 -62 8 -123 8 l-113 0 0 -35z"/>
<path d="M7116 6145 c-3 -9 -6 -25 -6 -36 0 -14 -7 -19 -29 -19 -25 0 -30 -5
-35 -34 -6 -30 -11 -35 -39 -38 -26 -2 -33 -8 -35 -30 -3 -22 -9 -27 -35 -30
-29 -3 -32 -6 -35 -40 -3 -35 -6 -38 -33 -38 -24 0 -29 -4 -29 -25 0 -23 3
-25 55 -26 30 -1 61 -2 68 -3 8 -1 12 18 13 59 l1 60 41 3 42 3 0 -40 c0 -68
-14 -91 -55 -91 -28 0 -35 -4 -35 -19 0 -38 11 -51 45 -51 30 0 33 3 39 40 l6
40 55 0 c67 0 72 8 67 107 -3 69 -5 72 -32 78 -26 6 -39 27 -40 62 0 7 16 15
36 19 31 6 35 10 32 33 -2 20 -9 27 -29 29 -17 2 -29 -3 -33 -13z"/>
<path d="M6987 6143 c-17 -16 -6 -41 21 -46 35 -7 47 5 33 32 -11 20 -41 28
-54 14z"/>
<path d="M5730 5990 c0 -26 5 -31 31 -37 28 -5 30 -9 27 -42 -3 -33 -6 -36
-36 -39 l-32 -3 2 -82 c2 -45 -1 -88 -5 -94 -5 -7 -23 -13 -42 -13 -31 0 -34
3 -37 33 l-3 32 -67 3 -68 3 0 -66 0 -65 29 0 c26 0 30 4 33 33 3 29 6 32 38
32 32 0 35 -3 38 -33 l3 -33 67 3 c65 3 67 4 70 31 3 24 7 27 43 27 37 0 39
-2 39 -30 l0 -30 70 0 70 0 0 30 c0 24 -4 30 -22 30 -32 0 -45 11 -49 40 -3
20 -11 26 -36 28 l-33 3 -2 72 c-1 40 -1 100 0 135 l3 62 -65 0 -66 0 0 -30z"/>
<path d="M6382 5993 c3 -25 8 -29 48 -35 63 -9 80 -2 80 33 l0 29 -66 0 -65 0
3 -27z"/>
<path d="M6640 5985 c0 -23 4 -26 28 -23 19 2 27 9 27 23 0 14 -8 21 -27 23
-24 3 -28 0 -28 -23z"/>
<path d="M6570 5921 c0 -28 3 -31 31 -31 27 0 30 3 27 28 -2 21 -9 28 -30 30
-25 3 -28 0 -28 -27z"/>
<path d="M6085 5920 c-8 -26 -7 -28 34 -36 31 -7 32 -6 29 22 -2 23 -9 30 -30
32 -20 2 -28 -2 -33 -18z"/>
<path d="M5940 5815 l0 -56 68 3 c60 3 67 5 70 25 3 17 -3 24 -25 28 -49 11
-53 14 -53 35 0 16 -7 20 -30 20 -30 0 -30 -1 -30 -55z"/>
<path d="M9584 5816 c-54 -54 -40 -127 33 -161 36 -17 38 -17 73 1 20 11 43
35 53 56 16 33 17 40 3 72 -29 70 -108 86 -162 32z"/>
<path d="M7114 5746 c-3 -8 -4 -25 -2 -38 2 -18 9 -23 33 -23 26 0 30 4 33 29
2 16 -2 32 -10 37 -20 13 -48 11 -54 -5z"/>
<path d="M6987 5684 c-4 -4 -7 -22 -7 -41 0 -30 3 -33 31 -33 29 0 30 2 27 38
-2 28 -8 38 -23 40 -12 2 -24 0 -28 -4z"/>
<path d="M6090 5605 l0 -75 29 0 29 0 4 75 3 75 -32 0 -33 0 0 -75z"/>
<path d="M8920 5609 c-83 -33 -78 -160 7 -196 43 -17 71 -12 112 23 95 79 -1
219 -119 173z"/>
<path d="M9571 5602 c-58 -29 -73 -59 -79 -160 l-5 -91 32 -31 c29 -30 31 -36
31 -109 0 -108 8 -116 105 -116 56 1 79 5 85 15 6 8 10 52 10 96 0 76 2 83 25
98 24 16 25 21 25 119 0 62 -5 112 -13 127 -31 61 -145 89 -216 52z"/>
<path d="M5495 5530 c-7 -11 -4 -458 3 -477 3 -10 64 -13 258 -13 l254 0 0
250 0 250 -254 0 c-156 0 -257 -4 -261 -10z m437 -217 c2 -87 2 -168 -1 -180
-3 -23 -5 -23 -181 -23 l-178 0 -5 28 c-7 43 -9 311 -2 322 4 6 76 10 185 10
l178 0 4 -157z"/>
<path d="M5703 5383 l-53 -4 0 -95 0 -94 100 0 100 0 0 100 0 100 -47 -2 c-27
-1 -72 -3 -100 -5z"/>
<path d="M8290 5524 c-39 -28 -49 -46 -50 -87 0 -72 48 -127 112 -127 43 0 73
22 98 69 23 46 14 94 -24 130 -33 31 -102 39 -136 15z"/>
<path d="M8880 5369 c-19 -6 -41 -16 -48 -23 -11 -11 -6 -14 29 -19 55 -7 88
-33 118 -91 24 -46 24 -50 10 -104 l-14 -57 30 -39 c27 -35 30 -46 33 -127 4
-85 5 -89 27 -89 21 0 23 5 27 82 4 70 8 84 26 96 21 14 22 22 22 142 0 115
-2 130 -23 160 -12 19 -37 42 -55 53 -38 22 -132 31 -182 16z"/>
<path d="M6440 5230 l0 -120 -35 0 c-33 0 -35 -2 -35 -35 l0 -35 69 0 70 0 3
37 c2 30 8 38 28 43 39 9 39 48 1 61 l-31 11 0 79 0 79 -35 0 -35 0 0 -120z"/>
<path d="M9353 5340 c-65 -27 -53 -132 18 -159 31 -11 61 1 88 35 27 34 27 62
-2 96 -24 31 -70 43 -104 28z"/>
<path d="M7575 5307 c-40 -18 -55 -38 -62 -80 -10 -66 48 -137 114 -137 31 0
82 38 100 75 43 90 -58 184 -152 142z"/>
<path d="M8291 5269 c-18 -6 -51 -22 -73 -35 l-40 -26 36 -30 c20 -16 43 -43
51 -58 17 -34 20 -126 4 -167 -10 -26 -7 -31 25 -58 l35 -30 3 -100 c3 -98 3
-100 30 -109 17 -6 42 -6 65 0 l38 9 5 106 c5 104 6 107 38 137 l32 30 0 105
c0 95 -2 107 -26 142 -35 51 -61 72 -111 84 -49 13 -66 13 -112 0z"/>
<path d="M8795 5268 c-52 -28 -67 -76 -40 -128 29 -57 103 -69 148 -25 49 50
43 110 -15 145 -37 22 -63 25 -93 8z"/>
<path d="M9334 5140 c-12 -4 -31 -21 -43 -35 -19 -25 -20 -36 -15 -114 5 -68
10 -89 25 -100 15 -10 19 -26 19 -72 0 -66 12 -79 72 -79 70 0 75 5 82 81 6
54 12 71 27 79 16 9 19 22 19 96 0 47 -5 94 -10 105 -21 39 -121 61 -176 39z"/>
<path d="M8075 5116 c-49 -21 -61 -46 -57 -113 3 -34 58 -83 94 -83 63 0 113
67 101 134 -6 32 -57 76 -86 76 -12 -1 -36 -7 -52 -14z"/>
<path d="M6087 5103 c-4 -3 -7 -19 -7 -35 0 -25 3 -28 34 -28 35 0 46 13 46
51 0 15 -7 19 -33 19 -19 0 -37 -3 -40 -7z"/>
<path d="M7515 5040 c-65 -32 -75 -59 -75 -197 0 -65 4 -123 8 -130 4 -6 20
-16 35 -22 27 -10 27 -11 27 -103 0 -51 5 -100 10 -108 7 -12 29 -15 100 -13
53 1 97 7 106 14 10 8 14 37 14 110 0 99 0 100 27 110 15 6 31 16 35 22 4 7 8
59 8 117 0 128 -14 163 -79 197 -58 30 -158 32 -216 3z"/>
<path d="M8744 5031 c-56 -34 -64 -55 -64 -169 0 -98 1 -104 26 -127 23 -21
27 -35 31 -97 6 -89 15 -98 99 -98 84 0 94 11 94 105 0 67 2 74 25 89 24 16
25 20 25 129 0 123 -7 145 -60 172 -42 22 -138 19 -176 -4z"/>
<path d="M8020 4874 c-62 -27 -70 -45 -70 -176 l0 -117 30 -21 c29 -21 30 -24
30 -98 0 -42 4 -84 10 -92 12 -19 150 -21 173 -1 13 10 17 31 17 95 0 80 1 81
30 98 l30 17 0 116 c0 64 -5 125 -11 137 -27 50 -164 75 -239 42z"/>
<path d="M7232 4830 c-53 -22 -53 -97 -1 -129 37 -22 79 -13 104 22 21 30 19
52 -7 81 -27 29 -63 39 -96 26z"/>
<path d="M7230 4663 c-8 -3 -27 -17 -42 -31 -26 -23 -28 -32 -28 -97 0 -59 4
-75 20 -90 15 -14 20 -31 20 -72 0 -46 3 -55 23 -64 16 -7 40 -8 68 -2 l44 9
3 53 c2 35 10 63 23 79 14 19 19 40 19 88 0 56 -4 68 -27 94 -28 30 -89 47
-123 33z"/>
<path d="M5493 4490 c-51 -45 -93 -87 -93 -95 0 -8 15 -15 38 -19 376 -54 563
-97 857 -193 359 -117 705 -290 940 -468 76 -57 184 -146 190 -155 3 -5 19
-19 36 -31 28 -20 30 -20 21 -3 -21 39 -141 165 -243 255 -377 334 -855 581
-1437 745 -69 20 -146 38 -171 40 -46 5 -47 4 -138 -76z"/>
<path d="M9595 4553 c-113 -23 -499 -145 -635 -200 -134 -55 -415 -195 -532
-266 -225 -137 -498 -354 -605 -482 -21 -25 -55 -64 -75 -86 -21 -23 -38 -45
-38 -50 0 -5 19 13 43 39 23 26 46 50 52 54 5 4 30 23 55 42 88 69 209 156
242 174 18 11 65 38 103 62 65 40 324 172 425 217 271 121 750 256 1065 299
66 9 123 19 127 23 4 3 -34 40 -83 81 -115 95 -120 98 -144 93z"/>
<path d="M5121 4036 l-91 -104 33 -6 c17 -3 142 -5 277 -6 413 0 662 -26 1040
-106 219 -47 349 -84 570 -164 112 -40 335 -139 482 -214 60 -30 55 -20 -14
25 -29 19 -80 53 -112 75 -69 45 -65 43 -188 110 -368 201 -795 347 -1258 430
-175 31 -463 64 -566 64 l-82 0 -91 -104z"/>
<path d="M9790 4124 c-262 -27 -330 -36 -480 -65 -239 -46 -590 -151 -817
-245 -311 -128 -646 -311 -773 -423 -33 -30 -32 -29 30 7 279 165 699 321
1095 406 355 77 623 106 1023 113 177 3 322 8 322 11 0 11 -56 79 -119 145
-74 77 -59 75 -281 51z"/>
<path d="M5215 3793 c-49 -2 -100 -5 -111 -8 -20 -5 -103 -113 -138 -182 -20
-39 -31 -38 144 -13 219 32 389 43 655 43 269 1 539 -14 700 -39 55 -8 141
-21 190 -29 195 -30 568 -123 783 -195 93 -32 103 -25 15 10 -32 13 -74 31
-93 41 -19 10 -65 30 -103 44 -61 24 -102 38 -302 106 -82 28 -345 95 -485
124 -345 72 -830 109 -1255 98z"/>
<path d="M9360 3770 c-256 -22 -485 -54 -615 -85 -55 -13 -134 -31 -175 -40
-206 -46 -600 -178 -753 -252 -72 -35 -127 -66 -124 -70 4 -3 13 -1 21 6 39
32 401 140 606 180 52 10 122 26 155 34 33 9 105 21 160 27 55 7 102 13 105
15 3 2 79 11 170 21 321 34 1043 19 1281 -27 99 -19 100 -16 27 91 -35 52 -75
101 -89 107 -37 19 -518 15 -769 -7z"/>
<path d="M5510 3524 c-205 -11 -669 -76 -681 -96 -6 -9 0 -98 6 -106 2 -2 49
6 106 17 452 86 1129 104 1693 45 263 -27 636 -97 650 -122 47 -83 227 -150
368 -138 118 11 231 62 272 125 14 20 31 31 55 34 20 3 113 19 206 36 404 71
602 86 1135 86 506 -1 599 -8 1026 -78 l82 -13 6 50 c3 28 2 54 -2 57 -8 8
-192 42 -317 58 -243 33 -402 41 -795 41 -392 -1 -573 -10 -735 -39 -33 -6
-123 -17 -199 -26 -76 -9 -153 -22 -170 -29 -17 -8 -64 -17 -105 -20 -75 -6
-179 -30 -301 -67 -36 -11 -89 -22 -119 -24 l-54 -5 24 28 c20 23 18 22 -11
-4 -42 -38 -49 -38 -225 11 -66 18 -158 41 -205 49 -47 9 -114 23 -150 31
-114 26 -233 45 -287 45 -28 0 -63 4 -78 10 -75 29 -287 42 -705 45 -234 1
-454 1 -490 -1z"/>
<path d="M7490 3406 c0 -2 8 -10 18 -17 15 -13 16 -12 3 4 -13 16 -21 21 -21
13z"/>
<path d="M8780 2736 c-101 -40 -186 -78 -188 -84 -2 -6 6 -13 17 -17 12 -3 26
-16 32 -27 8 -15 13 -17 19 -9 8 15 69 -4 230 -71 l105 -44 204 83 c113 46
206 85 208 87 6 6 -415 157 -434 155 -5 0 -91 -33 -193 -73z"/>
<path d="M8760 2495 l0 -64 53 -25 c66 -33 158 -50 222 -42 61 8 170 43 183
59 8 10 17 90 13 118 -1 4 -52 -11 -113 -33 -62 -22 -117 -40 -123 -40 -5 0
-61 20 -122 45 l-113 45 0 -63z"/>
<path d="M7019 2478 c-15 -12 -16 -57 -11 -475 l5 -462 44 -7 c40 -6 110 -1
119 9 6 6 5 929 -1 936 -13 13 -140 12 -156 -1z"/>
<path d="M7387 2478 c-16 -12 -17 -49 -15 -473 l3 -460 75 -5 c41 -3 83 -4 93
-2 16 4 17 35 17 472 0 417 -2 469 -16 474 -28 11 -140 6 -157 -6z"/>
<path d="M9452 2482 c-9 -6 -12 -109 -10 -478 l3 -469 79 -3 c45 -2 84 2 89 7
12 12 14 928 2 939 -10 10 -148 14 -163 4z"/>
<path d="M9860 2481 l-35 -6 -3 -464 c-2 -365 0 -466 10 -473 15 -9 129 -11
152 -2 14 5 16 57 16 474 l0 468 -22 6 c-27 7 -69 6 -118 -3z"/>
<path d="M5278 2452 l-28 -3 0 -450 0 -449 26 -10 c28 -11 123 -13 148 -4 13
5 16 26 16 129 0 68 3 130 6 139 5 13 23 16 98 16 l91 0 90 -139 c53 -83 98
-142 110 -145 31 -9 183 -7 189 2 3 5 -38 75 -90 158 l-95 149 23 15 c90 59
129 119 148 231 28 163 -71 318 -223 348 -49 10 -450 20 -509 13z m471 -191
c53 -25 75 -62 75 -124 0 -65 -25 -112 -74 -138 -48 -26 -294 -28 -304 -3 -9
23 -7 257 2 271 16 25 246 21 301 -6z"/>
<path d="M8060 2446 c-106 -30 -190 -89 -254 -180 -54 -76 -76 -139 -83 -238
-11 -149 32 -273 127 -369 178 -180 471 -186 665 -15 l48 41 -57 55 c-31 30
-61 57 -67 58 -5 2 -32 -15 -61 -37 -72 -58 -144 -78 -222 -62 -77 16 -122 40
-167 88 -61 64 -73 97 -73 198 0 99 15 141 75 209 97 111 258 122 386 26 28
-22 58 -40 66 -40 22 0 110 117 100 134 -23 40 -130 107 -212 132 -56 17 -209
17 -271 0z"/>
<path d="M8634 2425 c-9 -23 3 -45 26 -45 23 0 27 29 8 48 -16 16 -27 15 -34
-3z"/>
<path d="M6413 2220 c-101 -21 -175 -72 -228 -155 -91 -144 -70 -328 52 -449
106 -104 294 -125 444 -50 61 31 133 112 158 180 27 70 28 199 3 262 -34 85
-118 168 -202 197 -52 18 -173 26 -227 15z m181 -178 c85 -59 110 -171 60
-269 -30 -62 -85 -94 -162 -95 -164 -1 -241 196 -131 336 54 69 157 82 233 28z"/>
<path d="M8855 2210 c-22 -6 -64 -18 -94 -27 -51 -16 -53 -17 -48 -47 3 -17
12 -48 21 -68 l16 -37 55 19 c119 41 184 38 241 -12 26 -23 34 -38 34 -64 0
-32 -2 -34 -37 -35 -21 0 -83 -2 -138 -3 -88 -1 -108 -5 -158 -29 -75 -37
-100 -74 -105 -154 -5 -80 1 -104 41 -149 64 -74 178 -99 288 -65 36 12 78 30
93 42 26 20 26 20 26 0 0 -34 27 -51 83 -51 105 0 97 -18 96 229 0 254 -6 298
-45 354 -46 66 -124 99 -238 103 -50 2 -109 -1 -131 -6z m235 -419 c0 -22 -4
-51 -9 -64 -24 -61 -160 -97 -231 -60 -62 32 -66 107 -7 143 27 17 50 20 140
20 l107 0 0 -39z"/>
</g>
</svg>
